<?xml version="1.0" standalone="no"?>
<!DOCTYPE svg PUBLIC "-//W3C//DTD SVG 20010904//EN"
 "http://www.w3.org/TR/2001/REC-SVG-20010904/DTD/svg10.dtd">
<svg version="1.0" xmlns="http://www.w3.org/2000/svg"
 width="612.000000pt" height="612.000000pt" viewBox="0 0 612.000000 612.000000"
 preserveAspectRatio="xMidYMid meet">
<metadata>
Created by potrace 1.14, written by Peter Selinger 2001-2017
</metadata>
<g transform="translate(0.000000,612.000000) scale(0.100000,-0.100000)"
fill="#000000" stroke="none">
<path d="M2881 6105 c-188 -42 -313 -108 -445 -234 -171 -164 -262 -364 -273
-598 -4 -69 -1 -143 6 -189 36 -222 158 -430 332 -568 81 -64 238 -151 251
-138 4 4 16 30 27 59 l20 51 -74 36 c-224 106 -378 290 -442 526 -22 82 -25
299 -4 380 72 279 275 498 546 586 109 36 305 45 419 19 518 -115 797 -674
578 -1157 -61 -134 -172 -268 -287 -344 -63 -42 -74 -57 -17 -24 124 73 254
218 322 357 209 427 32 947 -397 1162 -115 57 -223 83 -368 87 -90 3 -150 -1
-194 -11z"/>
<path d="M2934 5776 c-201 -46 -362 -207 -413 -410 -15 -62 -15 -189 0 -252
20 -87 77 -191 138 -257 57 -60 169 -137 201 -137 14 0 48 67 38 74 -1 1 -29
15 -61 31 -158 78 -258 244 -258 425 1 173 73 312 213 408 75 52 144 74 244
80 155 8 270 -34 380 -140 206 -197 205 -518 -1 -725 -34 -34 -55 -58 -46 -54
9 5 43 38 77 73 98 102 144 218 144 364 0 229 -143 427 -366 505 -76 26 -209
33 -290 15z"/>
<path d="M2992 5403 c-41 -20 -69 -54 -84 -104 -21 -71 21 -156 87 -180 19 -7
35 -16 35 -20 0 -3 -160 -1000 -355 -2214 -196 -1214 -354 -2209 -352 -2211 1
-1 167 683 367 1521 201 838 367 1521 369 1519 3 -2 44 -577 91 -1277 l87
-1272 -88 -580 c-48 -318 -87 -580 -86 -582 1 -1 170 143 375 319 344 296 373
322 367 347 -3 14 -163 1009 -355 2211 -192 1202 -352 2193 -354 2203 -3 12 5
21 28 31 42 17 84 68 92 111 24 132 -106 236 -224 178z"/>
</g>
</svg>
